<?xml version="1.0" encoding="utf-8"?>
<!-- Generator: Adobe Illustrator 18.1.1, SVG Export Plug-In . SVG Version: 6.00 Build 0)  -->
<svg version="1.1"
	 xmlns:sodipodi="http://sodipodi.sourceforge.net/DTD/sodipodi-0.dtd" xmlns:inkscape="http://www.inkscape.org/namespaces/inkscape" xmlns:rdf="http://www.w3.org/1999/02/22-rdf-syntax-ns#" xmlns:svg="http://www.w3.org/2000/svg" xmlns:cc="http://creativecommons.org/ns#" xmlns:dc="http://purl.org/dc/elements/1.1/"
	 xmlns="http://www.w3.org/2000/svg" xmlns:xlink="http://www.w3.org/1999/xlink" x="0px" y="0px" viewBox="36.1 248.9 539.2 293.9"
	 enable-background="new 36.1 248.9 539.2 293.9" xml:space="preserve">
<path fill="white" d="M572.1,387.7c-0.3-0.3-0.6-0.6-0.9-0.9L424.4,252.2c-2.4-2.2-5.5-3.4-8.8-3.3c-6.8,0.2-12,5.9-11.8,12.7
	c0.1,3.4,1.6,6.5,4.1,8.7l123.5,113.4H49h-1.1c-6.4,0.3-12,6.4-11.7,12.8c0.3,6.4,6.4,12,12.8,11.7h482.5L407.9,521.5
	c-5,4.5-5.5,12.3-0.9,17.3c4.5,5,12.3,5.5,17.3,0.9c0,0,0.1,0,0.1-0.1L571.3,405C576.3,400.5,576.7,392.7,572.1,387.7z"/>
</svg>
