<?xml version="1.0" encoding="utf-8"?>
<!-- Generator: Adobe Illustrator 18.1.1, SVG Export Plug-In . SVG Version: 6.00 Build 0)  -->
<svg version="1.1" id="Слой_1" xmlns="http://www.w3.org/2000/svg" xmlns:xlink="http://www.w3.org/1999/xlink" x="0px" y="0px"
	 viewBox="0 0 579.4 47.7" enable-background="new 0 0 579.4 47.7" xml:space="preserve">
<path fill="#008acf" d="M21.9,21L4,1.1H0v46h12V26.3l9.3,9.8h1.3l9.4-9.8v20.8h12v-46h-3.9L21.9,21z M53.1,24.1c0,31,46.8,31,46.8,0
	C99.9-7.9,53.1-7.9,53.1,24.1z M65.1,24.1c0-17,22.9-17,22.9,0C87.9,40.1,65.1,40.1,65.1,24.1z M109,47.1h12v-36h16v-10h-28V47.1z
	 M157,23.4V1.1h-12v46h4.5L172,24.2v22.9h13v-46h-4.7L157,23.4z M211,0.1L190,45v2.2h11.9l11.6-26.7l11.7,26.7H237V45L216,0.1H211z
	 M254,28.1h16v-10h-16v-7h17v-10h-28v46h29v-11h-18V28.1z M311.8,22.9c2.2-1.8,3.6-5.1,3.6-7.8c0-7.9-6.3-14-14.2-14H282v46h21.1
	c9.3,0,14.1-6.7,14.2-14.6C317.3,28.5,315.6,24.8,311.8,22.9z M293,11.1h7.3c4.7,0,4.7,8,0.1,8H293V11.1z M302.3,36.1H293v-8h9.3
	C307,28.1,307,36.1,302.3,36.1z"/>
<path fill="#ff3300" d="M323.6,24.1c0,31,46.8,31,46.8,0C370.4-7.9,323.6-7.9,323.6,24.1z M335.6,24.1c0-17,22.9-17,22.9,0
	C358.5,40.1,335.6,40.1,335.6,24.1z M399.3,17.1H391v-6h21v-10h-33v46h20.3C421.2,46.1,421.2,17.1,399.3,17.1z M399,36.1h-8v-9h8
	C406,27.1,406,36.1,399,36.1z M439.3,0.1L419,45v2.2h11.2l11.6-26.7l11.7,26.7H465V45L444.3,0.1H439.3z M499,1.1h-28v46h12v-36h16
	V1.1z M517.5,0.1L497,45v2.2h11.4l2.7-6h18l2.7,6H543V45L522.5,0.1H517.5z M514.8,31.1l5.1-12l5.3,12H514.8z M572.8,21.9
	c2.7-2,4-5.5,4-8.5c0-6.6-5-13.4-15-13.4c-8,0-14.8,4.1-14.4,12.1h10.4c0-1,1.5-2.3,4-2.3c5.5,0,5.6,8.3-0.1,8.3H559v9h3
	c8,0,8,10.5,0,10.5c-4,0-5.9-2.5-5.9-5.5h-10.2c0,10,6.1,15.5,16,15.5c11.7,0,17.6-6.3,17.6-14.4C579.4,28.1,577.5,24.4,572.8,21.9z
	"/>
</svg>
