<?xml version="1.0" encoding="utf-8"?>
<!-- Generator: Adobe Illustrator 18.1.1, SVG Export Plug-In . SVG Version: 6.00 Build 0)  -->
<svg version="1.1" id="Слой_1" xmlns="http://www.w3.org/2000/svg" xmlns:xlink="http://www.w3.org/1999/xlink" x="0px" y="0px"
	 viewBox="0 0 617.8 50.5" enable-background="new 0 0 617.8 50.5" xml:space="preserve">
<path fill="#008acf" d="M23.6,21.9L4.6,0.8H0v48.7h12.7V27.8L23,38.6h1.4l10.3-10.8v21.6h12.7V0.8H43L23.6,21.9z M56.8,25.3
	c0,33.7,49.8,33.7,49.8,0C106.6-8.3,56.8-8.3,56.8,25.3z M69.5,25.3c0-17.5,24.4-17.5,24.4,0C93.9,42.9,69.5,42.9,69.5,25.3z
	 M115.9,49.5h12.6V12h17.6V0.9h-30.3V49.5z M167.6,24.7V0.9h-12.7v48.6h4.4l24.5-23.9v23.9h12.8V0.7h-4.5L167.6,24.7z M224.9,0.3
	L203,47.7v1.8h12.1L227.5,21L240,49.5h12.1v-1.8L230.2,0.3H224.9z M270.9,29.9h16.5v-11h-16.5V12h18V0.9h-30.3v48.6h30.9v-11h-18.6
	V29.9z M332.2,24.2c2.4-1.9,3.8-5.5,3.8-8.4c0-8.4-6.7-14.9-15.1-14.9h-20.7v48.6h22.8c9.9,0,15.1-6.9,15.1-15.3
	C338.1,29.8,336.2,26.2,332.2,24.2z M312.2,12h7.8c5,0,5,7.8,0.1,7.8h-7.8V12z M322.1,38.4h-9.9v-8.3h9.9
	C327,30.2,327.1,38.4,322.1,38.4z"/>
<path fill="#ff3300" d="M344.8,25.3c0,33.7,49.8,33.7,49.8,0C394.6-8.3,344.8-8.3,344.8,25.3z M357.6,25.3c0-17.5,24.4-17.5,24.4,0
	C381.9,42.9,357.6,42.9,357.6,25.3z M419.7,0.3l-21.9,47.4v1.8H410L422.4,21l12.5,28.4H447v-1.8L425.1,0.3H419.7z M474.7,17.9h-9V12
	h22.5V0.9h-34.9v48.6h21.4C498,49.4,498,17.9,474.7,17.9z M474.7,38.4c-2.9,0-6,0-8.9,0v-9.5h8.9C481.5,28.9,481.5,38.4,474.7,38.4z
	 M531.8,0.9c-9.9,0-20.3,0-30.3,0v48.6c4.2,0,8.5,0,12.6,0V12h17.6C531.8,7.8,531.8,5,531.8,0.9z M551.9,0.3L530,47.7v1.8h12.1
	l2.8-6.1h19.2l2.8,6.1h12.1v-1.8L557.2,0.3H551.9z M549.1,32.8l5.5-12.8l5.6,12.8H549.1z M610.8,23.1c2.8-2.2,4.2-5.8,4.2-9
	C615,7,609.7,0,599.1,0c-8.5,0-15.8,4.2-15.3,13.1h11c0-1.8,1.6-2.8,4.3-2.8c5.8,0,6,8.5-0.1,8.5h-3.3v10.1h3.4c8.3,0,8.3,11,0,11
	c-3.6,0-6.1-2.4-6.1-6.2h-10.9c0,10.9,6.5,16.7,17,16.7c12.5,0,18.7-6.7,18.7-15.3C617.8,29.6,615.7,25.7,610.8,23.1z"/>
</svg>
